<mxfile host="65bd71144e">
    <diagram id="3Xsf9Z5Jb-ylDypEAf_c" name="Register">
        <mxGraphModel dx="640" dy="656" grid="1" gridSize="10" guides="1" tooltips="1" connect="1" arrows="1" fold="1" page="1" pageScale="1" pageWidth="850" pageHeight="1100" background="none" math="0" shadow="0">
            <root>
                <mxCell id="AodUy6y1ME9elZLvLSFF-0"/>
                <mxCell id="AodUy6y1ME9elZLvLSFF-1" parent="AodUy6y1ME9elZLvLSFF-0"/>
                <mxCell id="AodUy6y1ME9elZLvLSFF-2" value="AccountMenuPresenter" style="shape=umlLifeline;perimeter=lifelinePerimeter;whiteSpace=wrap;html=1;container=1;collapsible=0;recursiveResize=0;outlineConnect=0;rounded=0;" parent="AodUy6y1ME9elZLvLSFF-1" vertex="1">
                    <mxGeometry x="240" y="80" width="130" height="2040" as="geometry"/>
                </mxCell>
                <mxCell id="AodUy6y1ME9elZLvLSFF-3" value="" style="html=1;points=[];perimeter=orthogonalPerimeter;rounded=0;" parent="AodUy6y1ME9elZLvLSFF-2" vertex="1">
                    <mxGeometry x="60" y="120" width="10" height="120" as="geometry"/>
                </mxCell>
                <mxCell id="0" value="" style="html=1;points=[];perimeter=orthogonalPerimeter;rounded=0;" parent="AodUy6y1ME9elZLvLSFF-2" vertex="1">
                    <mxGeometry x="60" y="840" width="10" height="50" as="geometry"/>
                </mxCell>
                <mxCell id="80" value="" style="html=1;points=[];perimeter=orthogonalPerimeter;rounded=0;" parent="AodUy6y1ME9elZLvLSFF-2" vertex="1">
                    <mxGeometry x="60" y="1470" width="10" height="120" as="geometry"/>
                </mxCell>
                <mxCell id="AodUy6y1ME9elZLvLSFF-4" value="AccountView" style="shape=umlLifeline;perimeter=lifelinePerimeter;whiteSpace=wrap;html=1;container=1;collapsible=0;recursiveResize=0;outlineConnect=0;rounded=0;" parent="AodUy6y1ME9elZLvLSFF-1" vertex="1">
                    <mxGeometry x="70" y="80" width="100" height="2120" as="geometry"/>
                </mxCell>
                <mxCell id="AodUy6y1ME9elZLvLSFF-5" value="" style="html=1;points=[];perimeter=orthogonalPerimeter;rounded=0;" parent="AodUy6y1ME9elZLvLSFF-4" vertex="1">
                    <mxGeometry x="45" y="90" width="10" height="30" as="geometry"/>
                </mxCell>
                <mxCell id="6" value="" style="html=1;points=[];perimeter=orthogonalPerimeter;rounded=0;" parent="AodUy6y1ME9elZLvLSFF-4" vertex="1">
                    <mxGeometry x="45" y="830" width="10" height="60" as="geometry"/>
                </mxCell>
                <mxCell id="9" style="edgeStyle=none;html=1;endArrow=classic;endFill=1;entryX=-0.052;entryY=0.015;entryDx=0;entryDy=0;entryPerimeter=0;rounded=0;" parent="AodUy6y1ME9elZLvLSFF-4" edge="1">
                    <mxGeometry relative="1" as="geometry">
                        <mxPoint x="-44" y="830" as="sourcePoint"/>
                        <mxPoint x="45.000000000000014" y="830" as="targetPoint"/>
                    </mxGeometry>
                </mxCell>
                <mxCell id="76" value="" style="html=1;points=[];perimeter=orthogonalPerimeter;rounded=0;" parent="AodUy6y1ME9elZLvLSFF-4" vertex="1">
                    <mxGeometry x="45" y="1440" width="10" height="30" as="geometry"/>
                </mxCell>
                <mxCell id="77" style="edgeStyle=none;html=1;endArrow=classic;endFill=1;entryX=-0.052;entryY=0.015;entryDx=0;entryDy=0;entryPerimeter=0;rounded=0;" parent="AodUy6y1ME9elZLvLSFF-4" target="76" edge="1">
                    <mxGeometry relative="1" as="geometry">
                        <mxPoint x="-50" y="1440" as="sourcePoint"/>
                    </mxGeometry>
                </mxCell>
                <mxCell id="AodUy6y1ME9elZLvLSFF-6" value="ClientConnection" style="shape=umlLifeline;perimeter=lifelinePerimeter;whiteSpace=wrap;html=1;container=1;collapsible=0;recursiveResize=0;outlineConnect=0;rounded=0;" parent="AodUy6y1ME9elZLvLSFF-1" vertex="1">
                    <mxGeometry x="1150" y="80" width="100" height="2060" as="geometry"/>
                </mxCell>
                <mxCell id="AodUy6y1ME9elZLvLSFF-7" value="" style="html=1;points=[];perimeter=orthogonalPerimeter;fillColor=#0050ef;fontColor=#ffffff;strokeColor=#001DBC;rounded=0;" parent="AodUy6y1ME9elZLvLSFF-6" vertex="1">
                    <mxGeometry x="45" y="300" width="10" height="30" as="geometry"/>
                </mxCell>
                <mxCell id="AodUy6y1ME9elZLvLSFF-8" value="" style="html=1;points=[];perimeter=orthogonalPerimeter;fillColor=#0050ef;fontColor=#ffffff;strokeColor=#001DBC;rounded=0;" parent="AodUy6y1ME9elZLvLSFF-6" vertex="1">
                    <mxGeometry x="45" y="630" width="10" height="30" as="geometry"/>
                </mxCell>
                <mxCell id="AodUy6y1ME9elZLvLSFF-97" style="edgeStyle=none;html=1;endArrow=classic;endFill=1;exitX=0.03;exitY=1.018;exitDx=0;exitDy=0;exitPerimeter=0;rounded=0;entryX=1.288;entryY=0.031;entryDx=0;entryDy=0;entryPerimeter=0;" parent="AodUy6y1ME9elZLvLSFF-6" target="AodUy6y1ME9elZLvLSFF-90" edge="1">
                    <mxGeometry relative="1" as="geometry">
                        <mxPoint x="45.00000000000023" y="660.06" as="sourcePoint"/>
                        <mxPoint x="-150.29999999999995" y="660.52" as="targetPoint"/>
                        <Array as="points">
                            <mxPoint x="-25.25" y="660"/>
                        </Array>
                    </mxGeometry>
                </mxCell>
                <mxCell id="AodUy6y1ME9elZLvLSFF-98" value="post(userDroppedSuccessfulResponse)" style="edgeLabel;html=1;align=center;verticalAlign=middle;resizable=0;points=[];rounded=0;" parent="AodUy6y1ME9elZLvLSFF-97" vertex="1" connectable="0">
                    <mxGeometry x="-0.3866" y="-2" relative="1" as="geometry">
                        <mxPoint x="-43" y="2" as="offset"/>
                    </mxGeometry>
                </mxCell>
                <mxCell id="20" value="" style="html=1;points=[];perimeter=orthogonalPerimeter;fillColor=#0050ef;fontColor=#ffffff;strokeColor=#001DBC;rounded=0;" parent="AodUy6y1ME9elZLvLSFF-6" vertex="1">
                    <mxGeometry x="45" y="950" width="10" height="30" as="geometry"/>
                </mxCell>
                <mxCell id="57" value="" style="html=1;points=[];perimeter=orthogonalPerimeter;fillColor=#0050ef;fontColor=#ffffff;strokeColor=#001DBC;rounded=0;" parent="AodUy6y1ME9elZLvLSFF-6" vertex="1">
                    <mxGeometry x="45" y="1279.0700000000002" width="10" height="30" as="geometry"/>
                </mxCell>
                <mxCell id="58" style="edgeStyle=none;html=1;endArrow=classic;endFill=1;exitX=0.03;exitY=1.018;exitDx=0;exitDy=0;exitPerimeter=0;rounded=0;entryX=1.028;entryY=0.02;entryDx=0;entryDy=0;entryPerimeter=0;" parent="AodUy6y1ME9elZLvLSFF-6" target="66" edge="1">
                    <mxGeometry relative="1" as="geometry">
                        <mxPoint x="45.00000000000023" y="1309.13" as="sourcePoint"/>
                        <mxPoint x="-172.1199999999999" y="1310" as="targetPoint"/>
                        <Array as="points">
                            <mxPoint x="-25.25" y="1309.0700000000002"/>
                        </Array>
                    </mxGeometry>
                </mxCell>
                <mxCell id="59" value="post(updatedUserSuccessfulResponse)" style="edgeLabel;html=1;align=center;verticalAlign=middle;resizable=0;points=[];rounded=0;" parent="58" vertex="1" connectable="0">
                    <mxGeometry x="-0.3866" y="-2" relative="1" as="geometry">
                        <mxPoint x="-43" y="2" as="offset"/>
                    </mxGeometry>
                </mxCell>
                <mxCell id="AodUy6y1ME9elZLvLSFF-17" value="serverHandler" style="shape=umlLifeline;perimeter=lifelinePerimeter;whiteSpace=wrap;html=1;container=1;collapsible=0;recursiveResize=0;outlineConnect=0;rounded=0;" parent="AodUy6y1ME9elZLvLSFF-1" vertex="1">
                    <mxGeometry x="1610" y="80" width="100" height="2050" as="geometry"/>
                </mxCell>
                <mxCell id="AodUy6y1ME9elZLvLSFF-20" value="server" style="shape=umlLifeline;perimeter=lifelinePerimeter;whiteSpace=wrap;html=1;container=1;collapsible=0;recursiveResize=0;outlineConnect=0;rounded=0;" parent="AodUy6y1ME9elZLvLSFF-1" vertex="1">
                    <mxGeometry x="1415.04" y="80" width="100" height="2040" as="geometry"/>
                </mxCell>
                <mxCell id="AodUy6y1ME9elZLvLSFF-21" value="" style="html=1;points=[];perimeter=orthogonalPerimeter;fillColor=#0050ef;fontColor=#ffffff;strokeColor=#001DBC;rounded=0;" parent="AodUy6y1ME9elZLvLSFF-20" vertex="1">
                    <mxGeometry x="45" y="330" width="10" height="80" as="geometry"/>
                </mxCell>
                <mxCell id="AodUy6y1ME9elZLvLSFF-22" value="" style="html=1;points=[];perimeter=orthogonalPerimeter;fillColor=#0050ef;fontColor=#ffffff;strokeColor=#001DBC;rounded=0;" parent="AodUy6y1ME9elZLvLSFF-20" vertex="1">
                    <mxGeometry x="45" y="600" width="10" height="30" as="geometry"/>
                </mxCell>
                <mxCell id="52" value="" style="html=1;points=[];perimeter=orthogonalPerimeter;fillColor=#0050ef;fontColor=#ffffff;strokeColor=#001DBC;rounded=0;" parent="AodUy6y1ME9elZLvLSFF-20" vertex="1">
                    <mxGeometry x="44.99999999999996" y="1250.6" width="10" height="30" as="geometry"/>
                </mxCell>
                <mxCell id="AodUy6y1ME9elZLvLSFF-23" value="&lt;span&gt;UserService&lt;/span&gt;" style="shape=umlLifeline;perimeter=lifelinePerimeter;whiteSpace=wrap;html=1;container=1;collapsible=0;recursiveResize=0;outlineConnect=0;rounded=0;" parent="AodUy6y1ME9elZLvLSFF-1" vertex="1">
                    <mxGeometry x="2025.04" y="80" width="120" height="1260" as="geometry"/>
                </mxCell>
                <mxCell id="AodUy6y1ME9elZLvLSFF-24" value="" style="html=1;points=[];perimeter=orthogonalPerimeter;fillColor=#0050ef;fontColor=#ffffff;strokeColor=#001DBC;rounded=0;" parent="AodUy6y1ME9elZLvLSFF-23" vertex="1">
                    <mxGeometry x="55" y="440" width="10" height="130" as="geometry"/>
                </mxCell>
                <mxCell id="35" value="" style="html=1;points=[];perimeter=orthogonalPerimeter;fillColor=#0050ef;fontColor=#ffffff;strokeColor=#001DBC;rounded=0;" parent="AodUy6y1ME9elZLvLSFF-23" vertex="1">
                    <mxGeometry x="55" y="1090" width="10" height="130" as="geometry"/>
                </mxCell>
                <mxCell id="AodUy6y1ME9elZLvLSFF-25" value="serverEventBus" style="shape=umlLifeline;perimeter=lifelinePerimeter;whiteSpace=wrap;html=1;container=1;collapsible=0;recursiveResize=0;outlineConnect=0;rounded=0;" parent="AodUy6y1ME9elZLvLSFF-1" vertex="1">
                    <mxGeometry x="1805.04" y="80" width="100" height="2050" as="geometry"/>
                </mxCell>
                <mxCell id="AodUy6y1ME9elZLvLSFF-26" value="" style="html=1;points=[];perimeter=orthogonalPerimeter;fillColor=#0050ef;fontColor=#ffffff;strokeColor=#001DBC;rounded=0;" parent="AodUy6y1ME9elZLvLSFF-25" vertex="1">
                    <mxGeometry x="45" y="410" width="10" height="30" as="geometry"/>
                </mxCell>
                <mxCell id="AodUy6y1ME9elZLvLSFF-27" value="" style="html=1;points=[];perimeter=orthogonalPerimeter;fillColor=#0050ef;fontColor=#ffffff;strokeColor=#001DBC;rounded=0;" parent="AodUy6y1ME9elZLvLSFF-25" vertex="1">
                    <mxGeometry x="45" y="570" width="10" height="30" as="geometry"/>
                </mxCell>
                <mxCell id="32" value="" style="html=1;points=[];perimeter=orthogonalPerimeter;fillColor=#0050ef;fontColor=#ffffff;strokeColor=#001DBC;rounded=0;" parent="AodUy6y1ME9elZLvLSFF-25" vertex="1">
                    <mxGeometry x="45" y="1060" width="10" height="30" as="geometry"/>
                </mxCell>
                <mxCell id="33" style="edgeStyle=none;html=1;endArrow=classic;endFill=1;exitX=0.995;exitY=0.998;exitDx=0;exitDy=0;exitPerimeter=0;entryX=-0.1;entryY=-0.017;entryDx=0;entryDy=0;entryPerimeter=0;rounded=0;" parent="AodUy6y1ME9elZLvLSFF-25" source="32" edge="1">
                    <mxGeometry relative="1" as="geometry">
                        <mxPoint x="-149.99999999999977" y="1080" as="sourcePoint"/>
                        <mxPoint x="274" y="1087.79" as="targetPoint"/>
                    </mxGeometry>
                </mxCell>
                <mxCell id="34" value="onUpdateUserRequest(updateUserRequest)" style="edgeLabel;html=1;align=center;verticalAlign=middle;resizable=0;points=[];rounded=0;" parent="33" vertex="1" connectable="0">
                    <mxGeometry x="-0.3866" y="-2" relative="1" as="geometry">
                        <mxPoint x="38" y="-4" as="offset"/>
                    </mxGeometry>
                </mxCell>
                <mxCell id="49" value="" style="html=1;points=[];perimeter=orthogonalPerimeter;fillColor=#0050ef;fontColor=#ffffff;strokeColor=#001DBC;rounded=0;" parent="AodUy6y1ME9elZLvLSFF-25" vertex="1">
                    <mxGeometry x="45" y="1220.12" width="10" height="30" as="geometry"/>
                </mxCell>
                <mxCell id="AodUy6y1ME9elZLvLSFF-28" value="" style="edgeStyle=none;html=1;dashed=1;endArrow=none;endFill=0;rounded=0;" parent="AodUy6y1ME9elZLvLSFF-1" edge="1">
                    <mxGeometry relative="1" as="geometry">
                        <mxPoint x="24.76000000000022" y="160" as="sourcePoint"/>
                        <mxPoint x="20" y="2170" as="targetPoint"/>
                    </mxGeometry>
                </mxCell>
                <mxCell id="AodUy6y1ME9elZLvLSFF-29" style="edgeStyle=none;html=1;endArrow=classic;endFill=1;entryX=-0.052;entryY=0.015;entryDx=0;entryDy=0;entryPerimeter=0;rounded=0;" parent="AodUy6y1ME9elZLvLSFF-1" target="AodUy6y1ME9elZLvLSFF-5" edge="1">
                    <mxGeometry relative="1" as="geometry">
                        <mxPoint x="25" y="170" as="sourcePoint"/>
                    </mxGeometry>
                </mxCell>
                <mxCell id="AodUy6y1ME9elZLvLSFF-30" value="User" style="shape=umlActor;verticalLabelPosition=bottom;verticalAlign=top;html=1;rounded=0;" parent="AodUy6y1ME9elZLvLSFF-1" vertex="1">
                    <mxGeometry x="10" y="80" width="30" height="60" as="geometry"/>
                </mxCell>
                <mxCell id="AodUy6y1ME9elZLvLSFF-31" value="userStore" style="shape=umlLifeline;perimeter=lifelinePerimeter;whiteSpace=wrap;html=1;container=1;collapsible=0;recursiveResize=0;outlineConnect=0;rounded=0;" parent="AodUy6y1ME9elZLvLSFF-1" vertex="1">
                    <mxGeometry x="2415.04" y="80" width="100" height="1250" as="geometry"/>
                </mxCell>
                <mxCell id="AodUy6y1ME9elZLvLSFF-32" value="" style="html=1;points=[];perimeter=orthogonalPerimeter;fillColor=#0050ef;fontColor=#ffffff;strokeColor=#001DBC;rounded=0;" parent="AodUy6y1ME9elZLvLSFF-31" vertex="1">
                    <mxGeometry x="45" y="470" width="10" height="30" as="geometry"/>
                </mxCell>
                <mxCell id="10" value="" style="html=1;points=[];perimeter=orthogonalPerimeter;fillColor=#0050ef;fontColor=#ffffff;strokeColor=#001DBC;rounded=0;" parent="AodUy6y1ME9elZLvLSFF-31" vertex="1">
                    <mxGeometry x="45" y="520" width="10" height="20" as="geometry"/>
                </mxCell>
                <mxCell id="AodUy6y1ME9elZLvLSFF-38" style="edgeStyle=none;html=1;endArrow=classic;endFill=1;entryX=-0.179;entryY=0.006;entryDx=0;entryDy=0;entryPerimeter=0;rounded=0;" parent="AodUy6y1ME9elZLvLSFF-1" source="AodUy6y1ME9elZLvLSFF-5" target="AodUy6y1ME9elZLvLSFF-3" edge="1">
                    <mxGeometry relative="1" as="geometry">
                        <mxPoint x="120" y="190" as="sourcePoint"/>
                        <mxPoint x="280" y="190" as="targetPoint"/>
                    </mxGeometry>
                </mxCell>
                <mxCell id="AodUy6y1ME9elZLvLSFF-39" value="onDeleteAccountButtonPressed" style="edgeLabel;html=1;align=center;verticalAlign=middle;resizable=0;points=[];rounded=0;" parent="AodUy6y1ME9elZLvLSFF-38" vertex="1" connectable="0">
                    <mxGeometry x="-0.3866" y="-2" relative="1" as="geometry">
                        <mxPoint x="30" as="offset"/>
                    </mxGeometry>
                </mxCell>
                <mxCell id="AodUy6y1ME9elZLvLSFF-46" style="edgeStyle=none;html=1;endArrow=classic;endFill=1;rounded=0;exitX=1.1;exitY=1;exitDx=0;exitDy=0;exitPerimeter=0;entryX=-0.243;entryY=0.009;entryDx=0;entryDy=0;entryPerimeter=0;" parent="AodUy6y1ME9elZLvLSFF-1" source="AodUy6y1ME9elZLvLSFF-7" target="AodUy6y1ME9elZLvLSFF-21" edge="1">
                    <mxGeometry relative="1" as="geometry">
                        <mxPoint x="1130" y="395" as="sourcePoint"/>
                        <mxPoint x="1380" y="410" as="targetPoint"/>
                    </mxGeometry>
                </mxCell>
                <mxCell id="AodUy6y1ME9elZLvLSFF-47" value="send(dropUserRequest)" style="edgeLabel;html=1;align=center;verticalAlign=middle;resizable=0;points=[];rounded=0;" parent="AodUy6y1ME9elZLvLSFF-46" vertex="1" connectable="0">
                    <mxGeometry x="-0.3866" y="-2" relative="1" as="geometry">
                        <mxPoint x="26" y="-2" as="offset"/>
                    </mxGeometry>
                </mxCell>
                <mxCell id="AodUy6y1ME9elZLvLSFF-48" style="edgeStyle=none;html=1;endArrow=classic;endFill=1;exitX=0.957;exitY=0.468;exitDx=0;exitDy=0;exitPerimeter=0;rounded=0;" parent="AodUy6y1ME9elZLvLSFF-1" source="AodUy6y1ME9elZLvLSFF-21" target="AodUy6y1ME9elZLvLSFF-17" edge="1">
                    <mxGeometry relative="1" as="geometry">
                        <mxPoint x="1475.04" y="380.93000000000006" as="sourcePoint"/>
                        <mxPoint x="1624.5200000000004" y="379.4900000000001" as="targetPoint"/>
                    </mxGeometry>
                </mxCell>
                <mxCell id="AodUy6y1ME9elZLvLSFF-49" value="process(ctx, dropUserRequest)" style="edgeLabel;html=1;align=center;verticalAlign=middle;resizable=0;points=[];rounded=0;" parent="AodUy6y1ME9elZLvLSFF-48" vertex="1" connectable="0">
                    <mxGeometry x="-0.3866" y="-2" relative="1" as="geometry">
                        <mxPoint x="26" y="-2" as="offset"/>
                    </mxGeometry>
                </mxCell>
                <mxCell id="AodUy6y1ME9elZLvLSFF-50" style="edgeStyle=none;html=1;endArrow=classic;endFill=1;exitX=0.995;exitY=0.993;exitDx=0;exitDy=0;exitPerimeter=0;entryX=-0.1;entryY=-0.017;entryDx=0;entryDy=0;entryPerimeter=0;rounded=0;" parent="AodUy6y1ME9elZLvLSFF-1" source="AodUy6y1ME9elZLvLSFF-21" target="AodUy6y1ME9elZLvLSFF-26" edge="1">
                    <mxGeometry relative="1" as="geometry">
                        <mxPoint x="1470.04" y="432.12000000000006" as="sourcePoint"/>
                        <mxPoint x="1755.04" y="429" as="targetPoint"/>
                    </mxGeometry>
                </mxCell>
                <mxCell id="AodUy6y1ME9elZLvLSFF-51" value="post(dropUserRequest)" style="edgeLabel;html=1;align=center;verticalAlign=middle;resizable=0;points=[];rounded=0;" parent="AodUy6y1ME9elZLvLSFF-50" vertex="1" connectable="0">
                    <mxGeometry x="-0.3866" y="-2" relative="1" as="geometry">
                        <mxPoint x="6" y="-1" as="offset"/>
                    </mxGeometry>
                </mxCell>
                <mxCell id="AodUy6y1ME9elZLvLSFF-52" style="edgeStyle=none;html=1;endArrow=classic;endFill=1;exitX=0.995;exitY=0.998;exitDx=0;exitDy=0;exitPerimeter=0;entryX=-0.1;entryY=-0.017;entryDx=0;entryDy=0;entryPerimeter=0;rounded=0;" parent="AodUy6y1ME9elZLvLSFF-1" source="AodUy6y1ME9elZLvLSFF-26" target="AodUy6y1ME9elZLvLSFF-24" edge="1">
                    <mxGeometry relative="1" as="geometry">
                        <mxPoint x="1655.0400000000002" y="510" as="sourcePoint"/>
                        <mxPoint x="1940.09" y="509.55999999999995" as="targetPoint"/>
                    </mxGeometry>
                </mxCell>
                <mxCell id="AodUy6y1ME9elZLvLSFF-53" value="onDropUserRequest(dropUserRequest)" style="edgeLabel;html=1;align=center;verticalAlign=middle;resizable=0;points=[];rounded=0;" parent="AodUy6y1ME9elZLvLSFF-52" vertex="1" connectable="0">
                    <mxGeometry x="-0.3866" y="-2" relative="1" as="geometry">
                        <mxPoint x="38" y="-4" as="offset"/>
                    </mxGeometry>
                </mxCell>
                <mxCell id="AodUy6y1ME9elZLvLSFF-54" value="userManagement" style="shape=umlLifeline;perimeter=lifelinePerimeter;whiteSpace=wrap;html=1;container=1;collapsible=0;recursiveResize=0;outlineConnect=0;rounded=0;" parent="AodUy6y1ME9elZLvLSFF-1" vertex="1">
                    <mxGeometry x="2200" y="80" width="100" height="1260" as="geometry"/>
                </mxCell>
                <mxCell id="AodUy6y1ME9elZLvLSFF-55" value="" style="html=1;points=[];perimeter=orthogonalPerimeter;fillColor=#0050ef;fontColor=#ffffff;strokeColor=#001DBC;rounded=0;" parent="AodUy6y1ME9elZLvLSFF-54" vertex="1">
                    <mxGeometry x="45" y="460" width="10" height="80" as="geometry"/>
                </mxCell>
                <mxCell id="38" value="" style="html=1;points=[];perimeter=orthogonalPerimeter;fillColor=#0050ef;fontColor=#ffffff;strokeColor=#001DBC;rounded=0;" parent="AodUy6y1ME9elZLvLSFF-54" vertex="1">
                    <mxGeometry x="45" y="1110" width="10" height="80" as="geometry"/>
                </mxCell>
                <mxCell id="AodUy6y1ME9elZLvLSFF-56" style="edgeStyle=none;html=1;endArrow=classic;endFill=1;entryX=-0.1;entryY=-0.017;entryDx=0;entryDy=0;entryPerimeter=0;exitX=1.233;exitY=0.15;exitDx=0;exitDy=0;exitPerimeter=0;rounded=0;" parent="AodUy6y1ME9elZLvLSFF-1" source="AodUy6y1ME9elZLvLSFF-24" target="AodUy6y1ME9elZLvLSFF-55" edge="1">
                    <mxGeometry relative="1" as="geometry">
                        <mxPoint x="2035.04" y="479" as="sourcePoint"/>
                        <mxPoint x="2135.14" y="530.9200000000001" as="targetPoint"/>
                    </mxGeometry>
                </mxCell>
                <mxCell id="AodUy6y1ME9elZLvLSFF-57" value="dropUser(userToDrop)" style="edgeLabel;html=1;align=center;verticalAlign=middle;resizable=0;points=[];rounded=0;" parent="AodUy6y1ME9elZLvLSFF-56" vertex="1" connectable="0">
                    <mxGeometry x="-0.3866" y="-2" relative="1" as="geometry">
                        <mxPoint x="19" y="-1" as="offset"/>
                    </mxGeometry>
                </mxCell>
                <mxCell id="AodUy6y1ME9elZLvLSFF-58" style="edgeStyle=none;html=1;endArrow=classic;endFill=1;entryX=-0.333;entryY=0;entryDx=0;entryDy=0;entryPerimeter=0;exitX=0.995;exitY=0.142;exitDx=0;exitDy=0;exitPerimeter=0;rounded=0;" parent="AodUy6y1ME9elZLvLSFF-1" source="AodUy6y1ME9elZLvLSFF-55" target="AodUy6y1ME9elZLvLSFF-32" edge="1">
                    <mxGeometry relative="1" as="geometry">
                        <mxPoint x="2210.04" y="490.86" as="sourcePoint"/>
                        <mxPoint x="2302.81" y="542.28" as="targetPoint"/>
                    </mxGeometry>
                </mxCell>
                <mxCell id="AodUy6y1ME9elZLvLSFF-59" value="findUser(username)" style="edgeLabel;html=1;align=center;verticalAlign=middle;resizable=0;points=[];rounded=0;" parent="AodUy6y1ME9elZLvLSFF-58" vertex="1" connectable="0">
                    <mxGeometry x="-0.3866" y="-2" relative="1" as="geometry">
                        <mxPoint x="-10" y="-3" as="offset"/>
                    </mxGeometry>
                </mxCell>
                <mxCell id="AodUy6y1ME9elZLvLSFF-60" style="edgeStyle=none;html=1;endArrow=classic;endFill=1;dashed=1;dashPattern=1 1;entryX=1.034;entryY=0.498;entryDx=0;entryDy=0;entryPerimeter=0;exitX=-0.028;exitY=1.001;exitDx=0;exitDy=0;exitPerimeter=0;rounded=0;" parent="AodUy6y1ME9elZLvLSFF-1" source="AodUy6y1ME9elZLvLSFF-32" target="AodUy6y1ME9elZLvLSFF-55" edge="1">
                    <mxGeometry relative="1" as="geometry">
                        <mxPoint x="2375.04" y="528" as="sourcePoint"/>
                        <mxPoint x="2219.09" y="524.67" as="targetPoint"/>
                    </mxGeometry>
                </mxCell>
                <mxCell id="AodUy6y1ME9elZLvLSFF-61" value="user" style="edgeLabel;html=1;align=center;verticalAlign=middle;resizable=0;points=[];rounded=0;" parent="AodUy6y1ME9elZLvLSFF-60" vertex="1" connectable="0">
                    <mxGeometry x="-0.3866" y="-2" relative="1" as="geometry">
                        <mxPoint x="43" y="2" as="offset"/>
                    </mxGeometry>
                </mxCell>
                <mxCell id="AodUy6y1ME9elZLvLSFF-64" style="edgeStyle=none;html=1;endArrow=classic;endFill=1;entryX=1.223;entryY=-0.024;entryDx=0;entryDy=0;entryPerimeter=0;exitX=-0.112;exitY=1.002;exitDx=0;exitDy=0;exitPerimeter=0;rounded=0;" parent="AodUy6y1ME9elZLvLSFF-1" source="AodUy6y1ME9elZLvLSFF-24" target="AodUy6y1ME9elZLvLSFF-27" edge="1">
                    <mxGeometry relative="1" as="geometry">
                        <mxPoint x="1988.3000000000002" y="580.4200000000001" as="sourcePoint"/>
                        <mxPoint x="1830.04" y="580" as="targetPoint"/>
                    </mxGeometry>
                </mxCell>
                <mxCell id="AodUy6y1ME9elZLvLSFF-65" value="post(userDroppedSuccessfulResponse)" style="edgeLabel;html=1;align=center;verticalAlign=middle;resizable=0;points=[];rounded=0;" parent="AodUy6y1ME9elZLvLSFF-64" vertex="1" connectable="0">
                    <mxGeometry x="-0.3866" y="-2" relative="1" as="geometry">
                        <mxPoint x="-37" y="-2" as="offset"/>
                    </mxGeometry>
                </mxCell>
                <mxCell id="AodUy6y1ME9elZLvLSFF-66" style="edgeStyle=none;html=1;endArrow=classic;endFill=1;entryX=1.042;entryY=-0.004;entryDx=0;entryDy=0;entryPerimeter=0;exitX=-0.18;exitY=0.98;exitDx=0;exitDy=0;exitPerimeter=0;rounded=0;" parent="AodUy6y1ME9elZLvLSFF-1" source="AodUy6y1ME9elZLvLSFF-27" target="AodUy6y1ME9elZLvLSFF-22" edge="1">
                    <mxGeometry relative="1" as="geometry">
                        <mxPoint x="1658.9199999999998" y="620.26" as="sourcePoint"/>
                        <mxPoint x="1460.04" y="610" as="targetPoint"/>
                    </mxGeometry>
                </mxCell>
                <mxCell id="AodUy6y1ME9elZLvLSFF-67" value="onUserDroppedSuccessfulResponse(userDroppedSuccessfulResponse)" style="edgeLabel;html=1;align=center;verticalAlign=middle;resizable=0;points=[];rounded=0;" parent="AodUy6y1ME9elZLvLSFF-66" vertex="1" connectable="0">
                    <mxGeometry x="-0.3866" y="-2" relative="1" as="geometry">
                        <mxPoint x="-72" y="2" as="offset"/>
                    </mxGeometry>
                </mxCell>
                <mxCell id="AodUy6y1ME9elZLvLSFF-68" style="edgeStyle=none;html=1;endArrow=classic;endFill=1;entryX=0.995;entryY=0.014;entryDx=0;entryDy=0;entryPerimeter=0;exitX=-0.137;exitY=1;exitDx=0;exitDy=0;exitPerimeter=0;rounded=0;" parent="AodUy6y1ME9elZLvLSFF-1" source="AodUy6y1ME9elZLvLSFF-22" target="AodUy6y1ME9elZLvLSFF-8" edge="1">
                    <mxGeometry relative="1" as="geometry">
                        <mxPoint x="1145" y="640" as="sourcePoint"/>
                        <mxPoint x="985.5038095238094" y="640" as="targetPoint"/>
                        <Array as="points"/>
                    </mxGeometry>
                </mxCell>
                <mxCell id="AodUy6y1ME9elZLvLSFF-69" value="sendClient(userDroppedSuccessfulResponse)" style="edgeLabel;html=1;align=center;verticalAlign=middle;resizable=0;points=[];rounded=0;" parent="AodUy6y1ME9elZLvLSFF-68" vertex="1" connectable="0">
                    <mxGeometry x="-0.3866" y="-2" relative="1" as="geometry">
                        <mxPoint x="-51" y="2" as="offset"/>
                    </mxGeometry>
                </mxCell>
                <mxCell id="AodUy6y1ME9elZLvLSFF-70" style="edgeStyle=none;html=1;endArrow=classic;endFill=1;exitX=0.98;exitY=1.005;exitDx=0;exitDy=0;exitPerimeter=0;rounded=0;entryX=-0.274;entryY=-0.023;entryDx=0;entryDy=0;entryPerimeter=0;" parent="AodUy6y1ME9elZLvLSFF-1" source="AodUy6y1ME9elZLvLSFF-3" target="AodUy6y1ME9elZLvLSFF-81" edge="1">
                    <mxGeometry relative="1" as="geometry">
                        <mxPoint x="459.71000000000004" y="289.5200000000001" as="sourcePoint"/>
                        <mxPoint x="454.48" y="289.4899999999998" as="targetPoint"/>
                    </mxGeometry>
                </mxCell>
                <mxCell id="AodUy6y1ME9elZLvLSFF-71" value="dropUser(loggedInUser)" style="edgeLabel;html=1;align=center;verticalAlign=middle;resizable=0;points=[];rounded=0;" parent="AodUy6y1ME9elZLvLSFF-70" vertex="1" connectable="0">
                    <mxGeometry x="-0.3866" y="-2" relative="1" as="geometry">
                        <mxPoint x="-81" y="-2" as="offset"/>
                    </mxGeometry>
                </mxCell>
                <mxCell id="AodUy6y1ME9elZLvLSFF-80" value="UserService" style="shape=umlLifeline;perimeter=lifelinePerimeter;whiteSpace=wrap;html=1;container=1;collapsible=0;recursiveResize=0;outlineConnect=0;rounded=0;" parent="AodUy6y1ME9elZLvLSFF-1" vertex="1">
                    <mxGeometry x="760" y="80" width="100" height="2070" as="geometry"/>
                </mxCell>
                <mxCell id="AodUy6y1ME9elZLvLSFF-81" value="" style="html=1;points=[];perimeter=orthogonalPerimeter;fillColor=#0050ef;fontColor=#ffffff;strokeColor=#001DBC;rounded=0;" parent="AodUy6y1ME9elZLvLSFF-80" vertex="1">
                    <mxGeometry x="45" y="240" width="10" height="30" as="geometry"/>
                </mxCell>
                <mxCell id="15" value="" style="html=1;points=[];perimeter=orthogonalPerimeter;fillColor=#0050ef;fontColor=#ffffff;strokeColor=#001DBC;rounded=0;" parent="AodUy6y1ME9elZLvLSFF-80" vertex="1">
                    <mxGeometry x="45.00000000000004" y="890.69" width="10" height="30" as="geometry"/>
                </mxCell>
                <mxCell id="AodUy6y1ME9elZLvLSFF-88" value="ClientEventBus" style="shape=umlLifeline;perimeter=lifelinePerimeter;whiteSpace=wrap;html=1;container=1;collapsible=0;recursiveResize=0;outlineConnect=0;rounded=0;" parent="AodUy6y1ME9elZLvLSFF-1" vertex="1">
                    <mxGeometry x="920" y="80" width="100" height="2050" as="geometry"/>
                </mxCell>
                <mxCell id="AodUy6y1ME9elZLvLSFF-89" value="" style="html=1;points=[];perimeter=orthogonalPerimeter;fillColor=#0050ef;fontColor=#ffffff;strokeColor=#001DBC;rounded=0;" parent="AodUy6y1ME9elZLvLSFF-88" vertex="1">
                    <mxGeometry x="45" y="270" width="10" height="30" as="geometry"/>
                </mxCell>
                <mxCell id="AodUy6y1ME9elZLvLSFF-90" value="" style="html=1;points=[];perimeter=orthogonalPerimeter;fillColor=#0050ef;fontColor=#ffffff;strokeColor=#001DBC;rounded=0;" parent="AodUy6y1ME9elZLvLSFF-88" vertex="1">
                    <mxGeometry x="45" y="660" width="10" height="30" as="geometry"/>
                </mxCell>
                <mxCell id="16" value="" style="html=1;points=[];perimeter=orthogonalPerimeter;fillColor=#0050ef;fontColor=#ffffff;strokeColor=#001DBC;rounded=0;" parent="AodUy6y1ME9elZLvLSFF-88" vertex="1">
                    <mxGeometry x="45" y="920" width="10" height="30" as="geometry"/>
                </mxCell>
                <mxCell id="66" value="" style="html=1;points=[];perimeter=orthogonalPerimeter;fillColor=#0050ef;fontColor=#ffffff;strokeColor=#001DBC;rounded=0;" parent="AodUy6y1ME9elZLvLSFF-88" vertex="1">
                    <mxGeometry x="45" y="1310" width="10" height="30" as="geometry"/>
                </mxCell>
                <mxCell id="67" style="edgeStyle=none;html=1;endArrow=classic;endFill=1;rounded=0;entryX=1.06;entryY=0.039;entryDx=0;entryDy=0;entryPerimeter=0;" parent="AodUy6y1ME9elZLvLSFF-88" target="69" edge="1">
                    <mxGeometry relative="1" as="geometry">
                        <mxPoint x="50" y="1339" as="sourcePoint"/>
                        <mxPoint x="-329.5938967136151" y="1339" as="targetPoint"/>
                        <Array as="points">
                            <mxPoint x="-32" y="1339"/>
                        </Array>
                    </mxGeometry>
                </mxCell>
                <mxCell id="68" value="onUpdatedUserSuccessfulResponse(updatedUserSuccessfulResponse)" style="edgeLabel;html=1;align=center;verticalAlign=middle;resizable=0;points=[];rounded=0;" parent="67" vertex="1" connectable="0">
                    <mxGeometry x="-0.3866" y="-2" relative="1" as="geometry">
                        <mxPoint x="-70" y="3" as="offset"/>
                    </mxGeometry>
                </mxCell>
                <mxCell id="83" value="" style="html=1;points=[];perimeter=orthogonalPerimeter;fillColor=#0050ef;fontColor=#ffffff;strokeColor=#001DBC;rounded=0;" parent="AodUy6y1ME9elZLvLSFF-88" vertex="1">
                    <mxGeometry x="45" y="1590" width="10" height="40" as="geometry"/>
                </mxCell>
                <mxCell id="AodUy6y1ME9elZLvLSFF-91" style="edgeStyle=none;html=1;endArrow=classic;endFill=1;exitX=1.095;exitY=1.011;exitDx=0;exitDy=0;exitPerimeter=0;rounded=0;entryX=-0.017;entryY=0.078;entryDx=0;entryDy=0;entryPerimeter=0;" parent="AodUy6y1ME9elZLvLSFF-1" source="AodUy6y1ME9elZLvLSFF-81" target="AodUy6y1ME9elZLvLSFF-89" edge="1">
                    <mxGeometry relative="1" as="geometry">
                        <mxPoint x="812.7900000000001" y="350.00000000000006" as="sourcePoint"/>
                        <mxPoint x="1009.9999999999999" y="350.03000000000003" as="targetPoint"/>
                        <Array as="points"/>
                    </mxGeometry>
                </mxCell>
                <mxCell id="AodUy6y1ME9elZLvLSFF-92" value="post(dropUserRequest)" style="edgeLabel;html=1;align=center;verticalAlign=middle;resizable=0;points=[];rounded=0;" parent="AodUy6y1ME9elZLvLSFF-91" vertex="1" connectable="0">
                    <mxGeometry x="-0.3866" y="-2" relative="1" as="geometry">
                        <mxPoint x="18" y="-3" as="offset"/>
                    </mxGeometry>
                </mxCell>
                <mxCell id="AodUy6y1ME9elZLvLSFF-93" style="edgeStyle=none;html=1;endArrow=classic;endFill=1;entryX=-0.06;entryY=0.027;entryDx=0;entryDy=0;entryPerimeter=0;exitX=1.1;exitY=1.04;exitDx=0;exitDy=0;exitPerimeter=0;rounded=0;" parent="AodUy6y1ME9elZLvLSFF-1" source="AodUy6y1ME9elZLvLSFF-89" target="AodUy6y1ME9elZLvLSFF-7" edge="1">
                    <mxGeometry relative="1" as="geometry">
                        <mxPoint x="975" y="364.86000000000007" as="sourcePoint"/>
                        <mxPoint x="1169.29" y="364.41" as="targetPoint"/>
                    </mxGeometry>
                </mxCell>
                <mxCell id="AodUy6y1ME9elZLvLSFF-94" value="onRequestMessage(DropUserRequest)" style="edgeLabel;html=1;align=center;verticalAlign=middle;resizable=0;points=[];rounded=0;" parent="AodUy6y1ME9elZLvLSFF-93" vertex="1" connectable="0">
                    <mxGeometry x="-0.3866" y="-2" relative="1" as="geometry">
                        <mxPoint x="32" y="-2" as="offset"/>
                    </mxGeometry>
                </mxCell>
                <mxCell id="AodUy6y1ME9elZLvLSFF-18" style="edgeStyle=none;html=1;endArrow=open;endFill=0;rounded=0;entryX=1.071;entryY=0.125;entryDx=0;entryDy=0;entryPerimeter=0;" parent="AodUy6y1ME9elZLvLSFF-1" source="AodUy6y1ME9elZLvLSFF-17" target="AodUy6y1ME9elZLvLSFF-21" edge="1">
                    <mxGeometry relative="1" as="geometry">
                        <mxPoint x="1634.61" y="420" as="sourcePoint"/>
                        <mxPoint x="1470.04" y="420" as="targetPoint"/>
                        <Array as="points">
                            <mxPoint x="1550" y="420"/>
                        </Array>
                    </mxGeometry>
                </mxCell>
                <mxCell id="AodUy6y1ME9elZLvLSFF-19" value="process(ctx, dropUserRequest)" style="edgeLabel;html=1;align=center;verticalAlign=middle;resizable=0;points=[];rounded=0;" parent="AodUy6y1ME9elZLvLSFF-18" vertex="1" connectable="0">
                    <mxGeometry x="-0.3866" y="-2" relative="1" as="geometry">
                        <mxPoint x="-29" y="2" as="offset"/>
                    </mxGeometry>
                </mxCell>
                <mxCell id="AodUy6y1ME9elZLvLSFF-99" value="ClientApp" style="shape=umlLifeline;perimeter=lifelinePerimeter;whiteSpace=wrap;html=1;container=1;collapsible=0;recursiveResize=0;outlineConnect=0;rounded=0;" parent="AodUy6y1ME9elZLvLSFF-1" vertex="1">
                    <mxGeometry x="530" y="80" width="120" height="2090" as="geometry"/>
                </mxCell>
                <mxCell id="AodUy6y1ME9elZLvLSFF-102" value="" style="html=1;points=[];perimeter=orthogonalPerimeter;fillColor=#0050ef;fontColor=#ffffff;strokeColor=#001DBC;rounded=0;" parent="AodUy6y1ME9elZLvLSFF-99" vertex="1">
                    <mxGeometry x="55" y="690" width="10" height="30" as="geometry"/>
                </mxCell>
                <mxCell id="69" value="" style="html=1;points=[];perimeter=orthogonalPerimeter;fillColor=#0050ef;fontColor=#ffffff;strokeColor=#001DBC;rounded=0;" parent="AodUy6y1ME9elZLvLSFF-99" vertex="1">
                    <mxGeometry x="55" y="1338.03" width="10" height="30" as="geometry"/>
                </mxCell>
                <mxCell id="97" value="" style="html=1;points=[];perimeter=orthogonalPerimeter;fillColor=#0050ef;fontColor=#ffffff;strokeColor=#001DBC;rounded=0;" parent="AodUy6y1ME9elZLvLSFF-99" vertex="1">
                    <mxGeometry x="54.99999999999996" y="1631" width="10" height="30" as="geometry"/>
                </mxCell>
                <mxCell id="112" style="edgeStyle=none;html=1;endArrow=classic;endFill=1;rounded=0;exitX=-0.1;exitY=1.038;exitDx=0;exitDy=0;exitPerimeter=0;entryX=0.867;entryY=0.017;entryDx=0;entryDy=0;entryPerimeter=0;" parent="AodUy6y1ME9elZLvLSFF-99" edge="1" target="115">
                    <mxGeometry relative="1" as="geometry">
                        <mxPoint x="55" y="1660.9999999999998" as="sourcePoint"/>
                        <mxPoint x="-79.33333333333314" y="1660.9999999999998" as="targetPoint"/>
                    </mxGeometry>
                </mxCell>
                <mxCell id="113" value="showMainScreen&lt;br&gt;(loggedInUser)" style="edgeLabel;html=1;align=center;verticalAlign=middle;resizable=0;points=[];rounded=0;" parent="112" vertex="1" connectable="0">
                    <mxGeometry x="-0.3866" y="-2" relative="1" as="geometry">
                        <mxPoint x="-20" y="-2" as="offset"/>
                    </mxGeometry>
                </mxCell>
                <mxCell id="AodUy6y1ME9elZLvLSFF-101" value="SceneManager" style="shape=umlLifeline;perimeter=lifelinePerimeter;whiteSpace=wrap;html=1;container=1;collapsible=0;recursiveResize=0;outlineConnect=0;rounded=0;" parent="AodUy6y1ME9elZLvLSFF-1" vertex="1">
                    <mxGeometry x="390" y="80" width="120" height="2070" as="geometry"/>
                </mxCell>
                <mxCell id="AodUy6y1ME9elZLvLSFF-107" value="" style="html=1;points=[];perimeter=orthogonalPerimeter;fillColor=#0050ef;fontColor=#ffffff;strokeColor=#001DBC;rounded=0;" parent="AodUy6y1ME9elZLvLSFF-101" vertex="1">
                    <mxGeometry x="55" y="720" width="10" height="30" as="geometry"/>
                </mxCell>
                <mxCell id="114" value="" style="html=1;points=[];perimeter=orthogonalPerimeter;fillColor=#0050ef;fontColor=#ffffff;strokeColor=#001DBC;rounded=0;" vertex="1" parent="AodUy6y1ME9elZLvLSFF-101">
                    <mxGeometry x="55" y="1368.03" width="10" height="30" as="geometry"/>
                </mxCell>
                <mxCell id="115" value="" style="html=1;points=[];perimeter=orthogonalPerimeter;fillColor=#0050ef;fontColor=#ffffff;strokeColor=#001DBC;rounded=0;" vertex="1" parent="AodUy6y1ME9elZLvLSFF-101">
                    <mxGeometry x="55" y="1660" width="10" height="30" as="geometry"/>
                </mxCell>
                <mxCell id="AodUy6y1ME9elZLvLSFF-103" style="edgeStyle=none;html=1;endArrow=classic;endFill=1;rounded=0;" parent="AodUy6y1ME9elZLvLSFF-1" target="AodUy6y1ME9elZLvLSFF-99" edge="1">
                    <mxGeometry relative="1" as="geometry">
                        <mxPoint x="970" y="769" as="sourcePoint"/>
                        <mxPoint x="662.25" y="769.05" as="targetPoint"/>
                        <Array as="points">
                            <mxPoint x="888" y="769"/>
                        </Array>
                    </mxGeometry>
                </mxCell>
                <mxCell id="AodUy6y1ME9elZLvLSFF-104" value="onUserDroppedSuccessfulResponse(userDroppedSuccessfulResponse)" style="edgeLabel;html=1;align=center;verticalAlign=middle;resizable=0;points=[];rounded=0;" parent="AodUy6y1ME9elZLvLSFF-103" vertex="1" connectable="0">
                    <mxGeometry x="-0.3866" y="-2" relative="1" as="geometry">
                        <mxPoint x="-70" y="3" as="offset"/>
                    </mxGeometry>
                </mxCell>
                <mxCell id="AodUy6y1ME9elZLvLSFF-105" style="edgeStyle=none;html=1;endArrow=classic;endFill=1;rounded=0;exitX=-0.1;exitY=1.038;exitDx=0;exitDy=0;exitPerimeter=0;" parent="AodUy6y1ME9elZLvLSFF-1" source="AodUy6y1ME9elZLvLSFF-102" target="AodUy6y1ME9elZLvLSFF-101" edge="1">
                    <mxGeometry relative="1" as="geometry">
                        <mxPoint x="460" y="930.0000000000001" as="sourcePoint"/>
                        <mxPoint x="310" y="930" as="targetPoint"/>
                    </mxGeometry>
                </mxCell>
                <mxCell id="AodUy6y1ME9elZLvLSFF-106" value="showLoginScreen()" style="edgeLabel;html=1;align=center;verticalAlign=middle;resizable=0;points=[];rounded=0;" parent="AodUy6y1ME9elZLvLSFF-105" vertex="1" connectable="0">
                    <mxGeometry x="-0.3866" y="-2" relative="1" as="geometry">
                        <mxPoint x="-20" y="-2" as="offset"/>
                    </mxGeometry>
                </mxCell>
                <mxCell id="7" style="edgeStyle=none;html=1;endArrow=classic;endFill=1;entryX=0.056;entryY=0.067;entryDx=0;entryDy=0;entryPerimeter=0;rounded=0;" parent="AodUy6y1ME9elZLvLSFF-1" target="0" edge="1">
                    <mxGeometry relative="1" as="geometry">
                        <mxPoint x="130" y="923" as="sourcePoint"/>
                        <mxPoint x="299.9999999999999" y="930" as="targetPoint"/>
                    </mxGeometry>
                </mxCell>
                <mxCell id="8" value="onPasswordResetButtonPressed" style="edgeLabel;html=1;align=center;verticalAlign=middle;resizable=0;points=[];rounded=0;fontColor=#00FF00;" parent="7" vertex="1" connectable="0">
                    <mxGeometry x="-0.3866" y="-2" relative="1" as="geometry">
                        <mxPoint x="30" as="offset"/>
                    </mxGeometry>
                </mxCell>
                <mxCell id="11" style="edgeStyle=none;html=1;endArrow=classic;endFill=1;exitX=1.346;exitY=0.756;exitDx=0;exitDy=0;exitPerimeter=0;rounded=0;entryX=-0.076;entryY=0.031;entryDx=0;entryDy=0;entryPerimeter=0;" parent="AodUy6y1ME9elZLvLSFF-1" source="AodUy6y1ME9elZLvLSFF-55" target="10" edge="1">
                    <mxGeometry relative="1" as="geometry">
                        <mxPoint x="2230.0000000000005" y="590.6800000000001" as="sourcePoint"/>
                        <mxPoint x="2460" y="591" as="targetPoint"/>
                    </mxGeometry>
                </mxCell>
                <mxCell id="12" value="removeUser(username)" style="edgeLabel;html=1;align=center;verticalAlign=middle;resizable=0;points=[];rounded=0;" parent="11" vertex="1" connectable="0">
                    <mxGeometry x="-0.3866" y="-2" relative="1" as="geometry">
                        <mxPoint y="-2" as="offset"/>
                    </mxGeometry>
                </mxCell>
                <mxCell id="3" style="edgeStyle=none;html=1;endArrow=classic;endFill=1;rounded=0;exitX=-0.056;exitY=0.622;exitDx=0;exitDy=0;exitPerimeter=0;entryX=1.056;entryY=0.676;entryDx=0;entryDy=0;entryPerimeter=0;" parent="AodUy6y1ME9elZLvLSFF-1" source="0" target="6" edge="1">
                    <mxGeometry relative="1" as="geometry">
                        <mxPoint x="305" y="970" as="sourcePoint"/>
                        <mxPoint x="124.99999999999997" y="970.4000000000001" as="targetPoint"/>
                        <Array as="points"/>
                    </mxGeometry>
                </mxCell>
                <mxCell id="4" value="getPasswordField()" style="edgeLabel;html=1;align=center;verticalAlign=middle;resizable=0;points=[];rounded=0;fontColor=#00FF00;" parent="3" vertex="1" connectable="0">
                    <mxGeometry x="0.1051" relative="1" as="geometry">
                        <mxPoint as="offset"/>
                    </mxGeometry>
                </mxCell>
                <mxCell id="13" style="edgeStyle=none;html=1;endArrow=classic;endFill=1;exitX=1.276;exitY=1.012;exitDx=0;exitDy=0;exitPerimeter=0;rounded=0;entryX=-0.274;entryY=-0.023;entryDx=0;entryDy=0;entryPerimeter=0;" parent="AodUy6y1ME9elZLvLSFF-1" source="0" target="15" edge="1">
                    <mxGeometry relative="1" as="geometry">
                        <mxPoint x="309.80000000000007" y="971.2900000000001" as="sourcePoint"/>
                        <mxPoint x="454.48" y="940.1799999999998" as="targetPoint"/>
                    </mxGeometry>
                </mxCell>
                <mxCell id="14" value="updateUser(userToUpdate)" style="edgeLabel;html=1;align=center;verticalAlign=middle;resizable=0;points=[];rounded=0;" parent="13" vertex="1" connectable="0">
                    <mxGeometry x="-0.3866" y="-2" relative="1" as="geometry">
                        <mxPoint x="-73" y="-2" as="offset"/>
                    </mxGeometry>
                </mxCell>
                <mxCell id="17" style="edgeStyle=none;html=1;endArrow=classic;endFill=1;rounded=0;entryX=-0.017;entryY=0.078;entryDx=0;entryDy=0;entryPerimeter=0;exitX=1.211;exitY=1.07;exitDx=0;exitDy=0;exitPerimeter=0;" parent="AodUy6y1ME9elZLvLSFF-1" source="15" target="16" edge="1">
                    <mxGeometry relative="1" as="geometry">
                        <mxPoint x="820" y="1002" as="sourcePoint"/>
                        <mxPoint x="1004.0499999999998" y="1000.03" as="targetPoint"/>
                        <Array as="points"/>
                    </mxGeometry>
                </mxCell>
                <mxCell id="18" value="post(updateUserRequest)" style="edgeLabel;html=1;align=center;verticalAlign=middle;resizable=0;points=[];rounded=0;" parent="17" vertex="1" connectable="0">
                    <mxGeometry x="-0.3866" y="-2" relative="1" as="geometry">
                        <mxPoint x="27" y="-4" as="offset"/>
                    </mxGeometry>
                </mxCell>
                <mxCell id="21" style="edgeStyle=none;html=1;endArrow=classic;endFill=1;rounded=0;exitX=1.1;exitY=1;exitDx=0;exitDy=0;exitPerimeter=0;entryX=-0.3;entryY=-0.008;entryDx=0;entryDy=0;entryPerimeter=0;" parent="AodUy6y1ME9elZLvLSFF-1" source="20" target="25" edge="1">
                    <mxGeometry relative="1" as="geometry">
                        <mxPoint x="1134" y="1045" as="sourcePoint"/>
                        <mxPoint x="1461.6100000000001" y="1060.72" as="targetPoint"/>
                    </mxGeometry>
                </mxCell>
                <mxCell id="22" value="send(updateUserRequest)" style="edgeLabel;html=1;align=center;verticalAlign=middle;resizable=0;points=[];rounded=0;" parent="21" vertex="1" connectable="0">
                    <mxGeometry x="-0.3866" y="-2" relative="1" as="geometry">
                        <mxPoint x="26" y="-2" as="offset"/>
                    </mxGeometry>
                </mxCell>
                <mxCell id="23" style="edgeStyle=none;html=1;endArrow=classic;endFill=1;entryX=-0.06;entryY=0.027;entryDx=0;entryDy=0;entryPerimeter=0;exitX=1.1;exitY=1.04;exitDx=0;exitDy=0;exitPerimeter=0;rounded=0;" parent="AodUy6y1ME9elZLvLSFF-1" target="20" edge="1">
                    <mxGeometry relative="1" as="geometry">
                        <mxPoint x="980" y="1031.2" as="sourcePoint"/>
                        <mxPoint x="1173.29" y="1014.4100000000001" as="targetPoint"/>
                    </mxGeometry>
                </mxCell>
                <mxCell id="24" value="onRequestMessage(updateUserRequest)" style="edgeLabel;html=1;align=center;verticalAlign=middle;resizable=0;points=[];rounded=0;" parent="23" vertex="1" connectable="0">
                    <mxGeometry x="-0.3866" y="-2" relative="1" as="geometry">
                        <mxPoint x="32" y="-2" as="offset"/>
                    </mxGeometry>
                </mxCell>
                <mxCell id="25" value="" style="html=1;points=[];perimeter=orthogonalPerimeter;fillColor=#0050ef;fontColor=#ffffff;strokeColor=#001DBC;rounded=0;" parent="AodUy6y1ME9elZLvLSFF-1" vertex="1">
                    <mxGeometry x="1460" y="1060" width="10" height="80" as="geometry"/>
                </mxCell>
                <mxCell id="26" style="edgeStyle=none;html=1;endArrow=classic;endFill=1;exitX=0.957;exitY=0.468;exitDx=0;exitDy=0;exitPerimeter=0;rounded=0;" parent="AodUy6y1ME9elZLvLSFF-1" source="25" target="AodUy6y1ME9elZLvLSFF-17" edge="1">
                    <mxGeometry relative="1" as="geometry">
                        <mxPoint x="1475" y="1030.93" as="sourcePoint"/>
                        <mxPoint x="1634.5" y="1097.44" as="targetPoint"/>
                    </mxGeometry>
                </mxCell>
                <mxCell id="27" value="process(ctx, updateUserRequest)" style="edgeLabel;html=1;align=center;verticalAlign=middle;resizable=0;points=[];rounded=0;" parent="26" vertex="1" connectable="0">
                    <mxGeometry x="-0.3866" y="-2" relative="1" as="geometry">
                        <mxPoint x="33" y="1" as="offset"/>
                    </mxGeometry>
                </mxCell>
                <mxCell id="28" style="edgeStyle=none;html=1;endArrow=classic;endFill=1;exitX=0.995;exitY=0.993;exitDx=0;exitDy=0;exitPerimeter=0;entryX=-0.207;entryY=0.008;entryDx=0;entryDy=0;entryPerimeter=0;rounded=0;" parent="AodUy6y1ME9elZLvLSFF-1" source="25" target="32" edge="1">
                    <mxGeometry relative="1" as="geometry">
                        <mxPoint x="1470" y="1082.1200000000001" as="sourcePoint"/>
                        <mxPoint x="1849" y="1139.4899999999998" as="targetPoint"/>
                    </mxGeometry>
                </mxCell>
                <mxCell id="29" value="post(updateUserRequest)" style="edgeLabel;html=1;align=center;verticalAlign=middle;resizable=0;points=[];rounded=0;" parent="28" vertex="1" connectable="0">
                    <mxGeometry x="-0.3866" y="-2" relative="1" as="geometry">
                        <mxPoint x="-36" y="-1" as="offset"/>
                    </mxGeometry>
                </mxCell>
                <mxCell id="30" style="edgeStyle=none;html=1;endArrow=open;endFill=0;rounded=0;entryX=1.071;entryY=0.125;entryDx=0;entryDy=0;entryPerimeter=0;" parent="AodUy6y1ME9elZLvLSFF-1" source="AodUy6y1ME9elZLvLSFF-17" target="25" edge="1">
                    <mxGeometry relative="1" as="geometry">
                        <mxPoint x="1634.5" y="1070" as="sourcePoint"/>
                        <mxPoint x="1470" y="1070" as="targetPoint"/>
                        <Array as="points">
                            <mxPoint x="1549.96" y="1070"/>
                        </Array>
                    </mxGeometry>
                </mxCell>
                <mxCell id="31" value="process(ctx, updateUserRequest)" style="edgeLabel;html=1;align=center;verticalAlign=middle;resizable=0;points=[];rounded=0;" parent="30" vertex="1" connectable="0">
                    <mxGeometry x="-0.3866" y="-2" relative="1" as="geometry">
                        <mxPoint x="-32" y="2" as="offset"/>
                    </mxGeometry>
                </mxCell>
                <mxCell id="39" style="edgeStyle=none;html=1;endArrow=classic;endFill=1;exitX=0.995;exitY=0.142;exitDx=0;exitDy=0;exitPerimeter=0;rounded=0;" parent="AodUy6y1ME9elZLvLSFF-1" source="38" target="AodUy6y1ME9elZLvLSFF-31" edge="1">
                    <mxGeometry relative="1" as="geometry">
                        <mxPoint x="2210" y="1140.8600000000001" as="sourcePoint"/>
                        <mxPoint x="2456.67" y="1200" as="targetPoint"/>
                    </mxGeometry>
                </mxCell>
                <mxCell id="40" value="findUser(username)" style="edgeLabel;html=1;align=center;verticalAlign=middle;resizable=0;points=[];rounded=0;" parent="39" vertex="1" connectable="0">
                    <mxGeometry x="-0.3866" y="-2" relative="1" as="geometry">
                        <mxPoint x="-10" y="-3" as="offset"/>
                    </mxGeometry>
                </mxCell>
                <mxCell id="41" style="edgeStyle=none;html=1;endArrow=classic;endFill=1;dashed=1;dashPattern=1 1;entryX=1.034;entryY=0.498;entryDx=0;entryDy=0;entryPerimeter=0;rounded=0;" parent="AodUy6y1ME9elZLvLSFF-1" source="AodUy6y1ME9elZLvLSFF-31" target="38" edge="1">
                    <mxGeometry relative="1" as="geometry">
                        <mxPoint x="2459.72" y="1230.03" as="sourcePoint"/>
                        <mxPoint x="2219.05" y="1174.67" as="targetPoint"/>
                    </mxGeometry>
                </mxCell>
                <mxCell id="42" value="user" style="edgeLabel;html=1;align=center;verticalAlign=middle;resizable=0;points=[];rounded=0;" parent="41" vertex="1" connectable="0">
                    <mxGeometry x="-0.3866" y="-2" relative="1" as="geometry">
                        <mxPoint x="57" y="2" as="offset"/>
                    </mxGeometry>
                </mxCell>
                <mxCell id="43" style="edgeStyle=none;html=1;endArrow=classic;endFill=1;exitX=1.346;exitY=0.756;exitDx=0;exitDy=0;exitPerimeter=0;rounded=0;" parent="AodUy6y1ME9elZLvLSFF-1" source="38" target="AodUy6y1ME9elZLvLSFF-31" edge="1">
                    <mxGeometry relative="1" as="geometry">
                        <mxPoint x="2229.9600000000005" y="1240.68" as="sourcePoint"/>
                        <mxPoint x="2459.24" y="1250.62" as="targetPoint"/>
                        <Array as="points"/>
                    </mxGeometry>
                </mxCell>
                <mxCell id="44" value="updateUser(username, password, email)" style="edgeLabel;html=1;align=center;verticalAlign=middle;resizable=0;points=[];rounded=0;" parent="43" vertex="1" connectable="0">
                    <mxGeometry x="-0.3866" y="-2" relative="1" as="geometry">
                        <mxPoint x="37" y="-2" as="offset"/>
                    </mxGeometry>
                </mxCell>
                <mxCell id="36" style="edgeStyle=none;html=1;endArrow=classic;endFill=1;entryX=-0.12;entryY=0.014;entryDx=0;entryDy=0;entryPerimeter=0;exitX=1.044;exitY=0.167;exitDx=0;exitDy=0;exitPerimeter=0;rounded=0;" parent="AodUy6y1ME9elZLvLSFF-1" source="35" target="38" edge="1">
                    <mxGeometry relative="1" as="geometry">
                        <mxPoint x="2035.04" y="1129" as="sourcePoint"/>
                        <mxPoint x="2219.04" y="1188.6399999999999" as="targetPoint"/>
                    </mxGeometry>
                </mxCell>
                <mxCell id="37" value="updateUser(userToUpdate)" style="edgeLabel;html=1;align=center;verticalAlign=middle;resizable=0;points=[];rounded=0;" parent="36" vertex="1" connectable="0">
                    <mxGeometry x="-0.3866" y="-2" relative="1" as="geometry">
                        <mxPoint x="22" y="-3" as="offset"/>
                    </mxGeometry>
                </mxCell>
                <mxCell id="45" style="edgeStyle=none;html=1;endArrow=classic;endFill=1;dashed=1;dashPattern=1 1;entryX=1.027;entryY=0.774;entryDx=0;entryDy=0;entryPerimeter=0;rounded=0;exitX=0.121;exitY=1.002;exitDx=0;exitDy=0;exitPerimeter=0;" parent="AodUy6y1ME9elZLvLSFF-1" source="38" target="35" edge="1">
                    <mxGeometry relative="1" as="geometry">
                        <mxPoint x="2214.3599999999997" y="1270.02" as="sourcePoint"/>
                        <mxPoint x="2060" y="1270" as="targetPoint"/>
                    </mxGeometry>
                </mxCell>
                <mxCell id="46" value="user" style="edgeLabel;html=1;align=center;verticalAlign=middle;resizable=0;points=[];rounded=0;" parent="45" vertex="1" connectable="0">
                    <mxGeometry x="-0.3866" y="-2" relative="1" as="geometry">
                        <mxPoint x="-7" y="2" as="offset"/>
                    </mxGeometry>
                </mxCell>
                <mxCell id="50" style="edgeStyle=none;html=1;endArrow=classic;endFill=1;entryX=1.042;entryY=-0.004;entryDx=0;entryDy=0;entryPerimeter=0;exitX=-0.08;exitY=1.006;exitDx=0;exitDy=0;exitPerimeter=0;rounded=0;" parent="AodUy6y1ME9elZLvLSFF-1" source="35" target="49" edge="1">
                    <mxGeometry relative="1" as="geometry">
                        <mxPoint x="2078.92" y="1300.38" as="sourcePoint"/>
                        <mxPoint x="1830.04" y="1230.12" as="targetPoint"/>
                    </mxGeometry>
                </mxCell>
                <mxCell id="51" value="post(updatedUserSuccessfulResponse)" style="edgeLabel;html=1;align=center;verticalAlign=middle;resizable=0;points=[];rounded=0;" parent="50" vertex="1" connectable="0">
                    <mxGeometry x="-0.3866" y="-2" relative="1" as="geometry">
                        <mxPoint x="-37" y="-2" as="offset"/>
                    </mxGeometry>
                </mxCell>
                <mxCell id="53" style="edgeStyle=none;html=1;endArrow=classic;endFill=1;entryX=1.042;entryY=-0.004;entryDx=0;entryDy=0;entryPerimeter=0;exitX=0.036;exitY=0.983;exitDx=0;exitDy=0;exitPerimeter=0;rounded=0;" parent="AodUy6y1ME9elZLvLSFF-1" source="49" target="52" edge="1">
                    <mxGeometry relative="1" as="geometry">
                        <mxPoint x="1843.2899999999997" y="1330" as="sourcePoint"/>
                        <mxPoint x="1455.09" y="1260.6" as="targetPoint"/>
                    </mxGeometry>
                </mxCell>
                <mxCell id="54" value="onUpdatedUserSuccessfulResponse(updatedUserSuccessfulResponse)" style="edgeLabel;html=1;align=center;verticalAlign=middle;resizable=0;points=[];rounded=0;" parent="53" vertex="1" connectable="0">
                    <mxGeometry x="-0.3866" y="-2" relative="1" as="geometry">
                        <mxPoint x="-72" y="2" as="offset"/>
                    </mxGeometry>
                </mxCell>
                <mxCell id="55" style="edgeStyle=none;html=1;endArrow=classic;endFill=1;entryX=1.219;entryY=0.017;entryDx=0;entryDy=0;entryPerimeter=0;exitX=-0.137;exitY=1;exitDx=0;exitDy=0;exitPerimeter=0;rounded=0;" parent="AodUy6y1ME9elZLvLSFF-1" source="52" target="57" edge="1">
                    <mxGeometry relative="1" as="geometry">
                        <mxPoint x="1140.05" y="1290.6" as="sourcePoint"/>
                        <mxPoint x="1199.9999999999998" y="1361.02" as="targetPoint"/>
                        <Array as="points"/>
                    </mxGeometry>
                </mxCell>
                <mxCell id="56" value="sendClient(updatedUserSuccessfulResponse)" style="edgeLabel;html=1;align=center;verticalAlign=middle;resizable=0;points=[];rounded=0;" parent="55" vertex="1" connectable="0">
                    <mxGeometry x="-0.3866" y="-2" relative="1" as="geometry">
                        <mxPoint x="-51" y="2" as="offset"/>
                    </mxGeometry>
                </mxCell>
                <mxCell id="72" style="edgeStyle=none;html=1;endArrow=classic;endFill=1;entryX=-0.056;entryY=0.378;entryDx=0;entryDy=0;entryPerimeter=0;rounded=0;exitX=1.111;exitY=0.454;exitDx=0;exitDy=0;exitPerimeter=0;" parent="AodUy6y1ME9elZLvLSFF-1" source="6" target="0" edge="1">
                    <mxGeometry relative="1" as="geometry">
                        <mxPoint x="140" y="933" as="sourcePoint"/>
                        <mxPoint x="310.55999999999995" y="933.3500000000001" as="targetPoint"/>
                    </mxGeometry>
                </mxCell>
                <mxCell id="73" value="onEmailResetButtonPressed" style="edgeLabel;html=1;align=center;verticalAlign=middle;resizable=0;points=[];rounded=0;strokeColor=#000066;fontColor=#0000CC;" parent="72" vertex="1" connectable="0">
                    <mxGeometry x="-0.3866" y="-2" relative="1" as="geometry">
                        <mxPoint x="21" as="offset"/>
                    </mxGeometry>
                </mxCell>
                <mxCell id="74" style="edgeStyle=none;html=1;endArrow=classic;endFill=1;rounded=0;entryX=1.278;entryY=0.917;entryDx=0;entryDy=0;entryPerimeter=0;exitX=-0.222;exitY=0.889;exitDx=0;exitDy=0;exitPerimeter=0;" parent="AodUy6y1ME9elZLvLSFF-1" source="0" target="6" edge="1">
                    <mxGeometry relative="1" as="geometry">
                        <mxPoint x="298.87999999999994" y="961.0999999999999" as="sourcePoint"/>
                        <mxPoint x="125.00000000000006" y="960.56" as="targetPoint"/>
                        <Array as="points">
                            <mxPoint x="210" y="965"/>
                        </Array>
                    </mxGeometry>
                </mxCell>
                <mxCell id="75" value="getEmailField()" style="edgeLabel;html=1;align=center;verticalAlign=middle;resizable=0;points=[];rounded=0;fillColor=#03042A;strokeColor=#04052A;fontColor=#0000CC;" parent="74" vertex="1" connectable="0">
                    <mxGeometry x="0.1051" relative="1" as="geometry">
                        <mxPoint as="offset"/>
                    </mxGeometry>
                </mxCell>
                <mxCell id="78" style="edgeStyle=none;html=1;endArrow=classic;endFill=1;entryX=-0.157;entryY=0.005;entryDx=0;entryDy=0;entryPerimeter=0;rounded=0;" parent="AodUy6y1ME9elZLvLSFF-1" source="76" target="80" edge="1">
                    <mxGeometry relative="1" as="geometry">
                        <mxPoint x="115" y="1540" as="sourcePoint"/>
                        <mxPoint x="293.21000000000004" y="1550.72" as="targetPoint"/>
                    </mxGeometry>
                </mxCell>
                <mxCell id="79" value="onReturnButtonPressed" style="edgeLabel;html=1;align=center;verticalAlign=middle;resizable=0;points=[];rounded=0;" parent="78" vertex="1" connectable="0">
                    <mxGeometry x="-0.3866" y="-2" relative="1" as="geometry">
                        <mxPoint x="22" y="-2" as="offset"/>
                    </mxGeometry>
                </mxCell>
                <mxCell id="81" style="edgeStyle=none;html=1;endArrow=classic;endFill=1;exitX=0.98;exitY=1.005;exitDx=0;exitDy=0;exitPerimeter=0;rounded=0;entryX=-0.054;entryY=0.023;entryDx=0;entryDy=0;entryPerimeter=0;" parent="AodUy6y1ME9elZLvLSFF-1" source="80" target="83" edge="1">
                    <mxGeometry relative="1" as="geometry">
                        <mxPoint x="459.71000000000004" y="1639.52" as="sourcePoint"/>
                        <mxPoint x="970" y="1671" as="targetPoint"/>
                    </mxGeometry>
                </mxCell>
                <mxCell id="82" value="post(returnToMainMenuRequest)" style="edgeLabel;html=1;align=center;verticalAlign=middle;resizable=0;points=[];rounded=0;" parent="81" vertex="1" connectable="0">
                    <mxGeometry x="-0.3866" y="-2" relative="1" as="geometry">
                        <mxPoint x="-61" y="-2" as="offset"/>
                    </mxGeometry>
                </mxCell>
                <mxCell id="98" style="edgeStyle=none;html=1;endArrow=classic;endFill=1;rounded=0;" parent="AodUy6y1ME9elZLvLSFF-1" source="AodUy6y1ME9elZLvLSFF-88" target="AodUy6y1ME9elZLvLSFF-99" edge="1">
                    <mxGeometry relative="1" as="geometry">
                        <mxPoint x="910.17" y="1710" as="sourcePoint"/>
                        <mxPoint x="530.0033333333332" y="1710" as="targetPoint"/>
                        <Array as="points">
                            <mxPoint x="828" y="1710"/>
                        </Array>
                    </mxGeometry>
                </mxCell>
                <mxCell id="99" value="onReturnToMainMenuRequest(returnToMainMenuRequest)" style="edgeLabel;html=1;align=center;verticalAlign=middle;resizable=0;points=[];rounded=0;" parent="98" vertex="1" connectable="0">
                    <mxGeometry x="-0.3866" y="-2" relative="1" as="geometry">
                        <mxPoint x="-70" y="3" as="offset"/>
                    </mxGeometry>
                </mxCell>
                <mxCell id="70" style="edgeStyle=none;html=1;endArrow=classic;endFill=1;rounded=0;exitX=-0.1;exitY=1.038;exitDx=0;exitDy=0;exitPerimeter=0;entryX=0.867;entryY=0.036;entryDx=0;entryDy=0;entryPerimeter=0;" parent="AodUy6y1ME9elZLvLSFF-1" source="69" edge="1" target="114">
                    <mxGeometry relative="1" as="geometry">
                        <mxPoint x="460" y="1578.0300000000002" as="sourcePoint"/>
                        <mxPoint x="449.66666666666674" y="1449.1699999999998" as="targetPoint"/>
                    </mxGeometry>
                </mxCell>
                <mxCell id="71" value="showMainScreen&lt;br&gt;(updatedUser)" style="edgeLabel;html=1;align=center;verticalAlign=middle;resizable=0;points=[];rounded=0;" parent="70" vertex="1" connectable="0">
                    <mxGeometry x="-0.3866" y="-2" relative="1" as="geometry">
                        <mxPoint x="-20" y="-2" as="offset"/>
                    </mxGeometry>
                </mxCell>
            </root>
        </mxGraphModel>
    </diagram>
</mxfile>